<svg width="326" height="105" viewBox="0 0 326 105" xmlns="http://www.w3.org/2000/svg" xmlns:xlink="http://www.w3.org/1999/xlink">
  <path id="o" fill="#000000" d="M 300.153992 29.92424 C 286.525909 29.851509 276.88681 39.699997 276.814056 53.251518 C 276.747375 66.942429 286.247009 76.657578 300.014557 76.724243 C 313.782104 76.790909 323.421173 67.154541 323.487885 53.372726 C 323.560638 39.912125 313.709351 29.990906 300.153992 29.92424 Z M 300.153992 40.469696 C 307.210541 40.469696 311.890656 46.621212 311.890656 53.396973 C 311.890656 60.451519 307.48941 66.124237 300.081238 66.124237 C 292.673065 66.124237 288.344604 60.396969 288.344604 53.342422 C 288.344604 46.28788 292.818604 40.469696 300.153992 40.469696 Z"/>
  <path id="m" fill="#000000" d="M 232.69244 76.02729 C 231.689774 76.030527 230.727272 75.633692 230.018268 74.924899 C 229.309284 74.216106 228.912446 73.253866 228.915683 72.251485 L 228.988384 52.554515 C 228.988384 46.057551 225.496495 40.960647 218.646085 40.960647 C 211.795656 40.960647 207.606515 46.621165 207.539838 53.045401 L 207.467137 72.251485 C 207.447138 74.314346 205.759898 75.971304 203.69642 75.954492 L 199.713403 75.954492 C 197.649962 75.934498 195.992511 74.247731 196.009347 72.184842 C 196.076024 60.239402 196.076083 48.227238 196.148828 36.281788 L 196.148828 34.675727 C 196.155507 32.615253 197.828161 30.94844 199.889234 30.948455 L 203.314446 30.948455 C 205.334744 31.008498 206.958449 32.631732 207.018502 34.651461 L 207.188294 36.560552 C 211.310662 32.718134 215.784699 30.275751 221.580273 30.275751 C 229.163496 30.315941 234.536968 34.051964 237.593212 39.606243 C 238.819446 37.998181 240.227954 36.560552 240.227954 36.560552 C 244.35033 32.71813 248.824352 30.275751 254.619933 30.275751 C 267.19924 30.342416 273.698045 40.578841 273.625315 52.415192 L 273.558653 72.251485 C 273.56188 73.253866 273.164957 74.216106 272.45595 74.924899 C 271.746943 75.633692 270.784429 76.030527 269.781779 76.02729 L 265.7321 76.02729 C 264.72942 76.030527 263.766935 75.633692 263.057928 74.924899 C 262.348951 74.216106 261.952087 73.253866 261.955343 72.251485 L 262.028044 52.554515 C 262.028044 46.057551 258.536133 40.960647 251.685745 40.960647 C 244.924242 40.960647 240.755579 46.4752 240.584353 52.795637 L 240.518875 72.251485 C 240.522112 73.253866 240.125275 74.216106 239.41629 74.924899 C 238.707287 75.633692 237.744765 76.030527 236.742119 76.02729 L 232.69244 76.02729 Z"/>
  <path id="a" fill="#000000" d="M 166.940974 76.560733 C 166.921113 76.560627 166.901365 76.560415 166.881535 76.560259 C 166.870714 76.560471 166.85995 76.560614 166.849566 76.560614 C 165.60078 76.560614 164.368426 76.441192 163.164336 76.210354 C 163.142071 76.206085 163.119802 76.201914 163.097556 76.19757 C 162.172546 76.020802 161.288888 75.78168 160.446829 75.484975 C 152.125587 72.616577 145.753713 64.247769 145.807266 53.251547 C 145.880011 39.700036 155.519118 29.851526 169.14721 29.924251 C 182.405504 29.989462 192.120198 39.482078 192.471524 52.493024 C 192.499674 52.683076 192.513516 52.87775 192.5119 53.075884 C 192.445223 65.021321 192.445164 58.60924 192.372419 70.554696 L 192.372419 72.160756 C 192.365729 74.221236 190.693082 75.888043 188.632013 75.888029 L 185.2068 75.888029 C 183.186507 75.827983 181.562806 74.204752 181.502745 72.185022 L 181.332952 70.275931 C 177.210592 74.118345 172.736555 76.560733 166.940974 76.560733 Z M 169.875162 65.875837 C 171.976105 65.875837 173.826615 65.343336 175.384772 64.419752 C 178.911365 62.223015 180.883843 58.119666 180.883843 53.397025 C 180.883843 46.621275 176.203741 40.469705 169.14721 40.469705 C 161.811806 40.469705 157.337757 46.287916 157.337757 53.342456 C 157.337757 55.642546 157.798027 57.801397 158.67502 59.666793 C 160.813465 63.385191 165.086524 65.875837 169.875162 65.875837 Z"/>
  <path id="c" fill="#000000" d="M 135.677109 63.524242 C 138.823456 61.148487 139.24176 62.475758 141.897049 65.130302 C 143.224701 66.457573 146.856033 68.766663 144.479599 70.718185 C 139.52063 74.76667 135.046631 76.584854 128.71756 76.584854 C 114.392296 76.518181 104.262154 65.827271 105.074501 51.645458 C 105.420059 45.293941 107.935921 39.281822 112.900963 35.160606 C 117.441643 31.318184 123.097786 29.645454 129.038864 29.784851 C 131.950729 29.776207 134.835419 30.344742 137.526123 31.457581 C 139.348557 32.115433 141.065903 33.034088 142.624527 34.184853 C 145.770874 36.609093 144.303802 38.027275 141.854614 40.469696 C 141.296875 41.027271 140.739151 41.590908 140.248108 42.148487 C 138.993195 43.403034 138.150528 44.312126 136.477341 43.124241 C 133.264297 40.887878 129.202545 39.699997 125.365097 40.699997 C 112.997963 43.839394 113.555695 65.845459 128.723633 65.918182 C 131.238068 65.885101 133.675476 65.045959 135.677109 63.524242 Z"/>
  <path id="logo-5" fill="#647a6b" d="M 32.338753 72.463638 C 27.165207 67.244156 24.281654 60.181232 24.324362 52.833336 C 24.305559 45.484135 27.243963 38.436142 32.478188 33.275757 C 35.502316 30.588524 36.790905 26.449074 35.826145 22.520828 C 34.861385 18.592575 31.801657 15.520447 27.876505 14.538963 C 23.951355 13.55748 19.805191 14.827782 17.104136 17.839394 C -2.286264 37.109932 -2.381256 68.445663 16.891954 87.833336 C 19.583944 90.840469 23.716593 92.116257 27.635876 91.150078 C 31.555159 90.183899 34.620743 87.133621 35.605686 83.220047 C 36.590626 79.30648 35.334 75.169029 32.338753 72.463638 Z"/>
  <path id="logo-4" fill="#afb18a" d="M 32.478188 33.275757 C 43.350529 22.515617 60.881664 22.577957 71.67717 33.415154 C 74.360191 36.454559 78.507767 37.756058 82.446938 36.794662 C 86.386108 35.833267 89.467209 32.76754 90.447472 28.834068 C 91.427727 24.900604 90.14547 20.7481 87.117905 18.051514 C 77.896072 8.713417 65.332481 3.433609 52.2066 3.380157 C 39.080719 3.326691 26.474512 8.50399 17.176884 17.76667 C 14.14185 20.440094 12.835125 24.572609 13.781588 28.504288 C 14.728052 32.435966 17.7724 35.52166 21.691788 36.521904 C 25.611176 37.522156 29.762468 36.272827 32.478188 33.275757 Z"/>
  <path id="logo-3" fill="#726543" d="M 71.610481 72.603027 C 66.391479 77.785431 59.324459 80.679039 51.968555 80.645454 C 44.612858 80.656265 37.562241 77.707504 32.405441 72.463638 C 29.717447 69.440361 25.57682 68.15213 21.647459 69.116623 C 17.718096 70.081116 14.645098 73.139977 13.663337 77.064011 C 12.681578 80.988052 13.952235 85.133049 16.964703 87.833336 C 26.202209 97.170555 38.777424 102.447952 51.913704 102.500259 C 65.049988 102.552567 77.666855 97.375488 86.978477 88.112122 C 91.262405 83.869568 91.294975 76.958473 87.051216 72.675751 C 82.807465 68.393036 75.894409 68.360474 71.610481 72.603027 Z"/>
  <path id="logo-2" fill="#b69d5b" d="M 25.050567 91.467624 C 22.657952 91.473557 20.320236 90.691248 18.409719 89.235735 C 17.919533 88.779026 17.43776 88.31155 16.964707 87.833391 C 13.952242 85.133106 12.681588 80.988017 13.663346 77.063979 C 14.645105 73.139945 17.718137 70.081141 21.647496 69.116654 C 25.118396 68.264698 28.754053 69.170423 31.407836 71.477094 C 31.709362 71.812687 32.019635 72.141667 32.338734 72.4636 C 35.333979 75.16899 36.590577 79.306431 35.60564 83.219992 C 34.620698 87.133563 31.555094 90.183858 27.635816 91.150034 C 26.778474 91.361386 25.911015 91.465491 25.050567 91.467624 Z"/>
  <path id="logo-1" fill="#8c922f" d="M 24.372108 36.861131 C 23.479707 36.85962 22.579765 36.748498 21.69178 36.521879 C 17.772396 35.521633 14.728096 32.435919 13.781632 28.504242 C 12.963609 25.106111 13.828798 21.558037 16.03819 18.931562 C 16.386845 18.563427 16.742073 18.199227 17.104188 17.839351 C 17.116505 17.825618 17.128872 17.812055 17.141248 17.798395 C 17.153134 17.787833 17.164949 17.777188 17.176888 17.766671 C 17.510878 17.433936 17.849099 17.106446 18.191499 16.784308 C 20.847301 14.543288 24.446314 13.6812 27.876533 14.538925 C 31.801682 15.520406 34.861345 18.592566 35.826109 22.520814 C 36.723341 26.174116 35.671566 30.010051 33.087408 32.690677 C 32.88214 32.88203 32.679024 33.077049 32.478215 33.275786 C 32.269263 33.48179 32.063985 33.690878 31.862392 33.902798 C 29.819467 35.822194 27.1316 36.865803 24.372108 36.861131 Z"/>
</svg>
