<svg width="1304" height="420" viewBox="0 0 1304 420" xmlns="http://www.w3.org/2000/svg" xmlns:xlink="http://www.w3.org/1999/xlink">
  <path fill="#647a6b" d="M 129.355011 289.854553 C 108.660828 268.976624 97.126617 240.72493 97.297447 211.333344 C 97.222237 181.936539 108.975853 153.744568 129.91275 133.103027 C 142.009262 122.354095 147.16362 105.796295 143.304581 90.083313 C 139.445541 74.3703 127.206627 62.081787 111.50602 58.155853 C 95.80542 54.229919 79.220764 59.311127 68.416542 71.357574 C -9.145057 148.439728 -9.525023 273.782654 67.567818 351.333344 C 78.335777 363.361877 94.866371 368.465027 110.543503 364.600311 C 126.220634 360.735596 138.482971 348.534485 142.422745 332.880188 C 146.362503 317.225922 141.335999 300.676117 129.355011 289.854553 Z"/>
  <path fill="#afb18a" d="M 129.91275 133.103027 C 173.402115 90.062469 243.526657 90.311829 286.708679 133.660614 C 297.440765 145.818237 314.031067 151.024231 329.78775 147.17865 C 345.544434 143.333069 357.868835 131.07016 361.789886 115.336273 C 365.710907 99.602417 360.581879 82.992401 348.471619 72.206055 C 311.58429 34.853668 261.329926 13.734436 208.826401 13.52063 C 156.322876 13.306763 105.898048 34.015961 68.707535 71.066681 C 56.567398 81.760376 51.3405 98.290436 55.12635 114.017151 C 58.912209 129.743866 71.0896 142.086639 86.767151 146.087616 C 102.444702 150.088623 119.049873 145.091309 129.91275 133.103027 Z"/>
  <path fill="#726543" d="M 286.441925 290.412109 C 265.565918 311.141724 237.297836 322.716156 207.874222 322.581818 C 178.451431 322.625061 150.248962 310.830017 129.621765 289.854553 C 118.869789 277.761444 102.307281 272.608521 86.589836 276.466492 C 70.872383 280.324463 58.580391 292.559906 54.653347 308.256042 C 50.726311 323.952209 55.808941 340.532196 67.85881 351.333344 C 104.808838 388.68222 155.109695 409.791809 207.654816 410.001038 C 260.199951 410.210266 310.667419 389.501953 347.91391 352.448486 C 365.049622 335.478271 365.179901 307.833893 348.204865 290.703003 C 331.229858 273.572144 303.577637 273.441895 286.441925 290.412109 Z"/>
  <path fill="#b69d5b" d="M 100.202268 365.870498 C 90.631808 365.894228 81.280943 362.764993 73.638874 356.942941 C 71.678131 355.116105 69.751038 353.246202 67.858828 351.333566 C 55.808967 340.532425 50.726354 323.952069 54.653384 308.255914 C 58.580421 292.559781 70.872548 280.324566 86.589985 276.466615 C 100.473584 273.058791 115.016211 276.681693 125.631345 285.908376 C 126.83745 287.250747 128.07854 288.56667 129.354937 289.854399 C 141.335917 300.675959 146.36231 317.225723 142.422559 332.879967 C 138.482793 348.534252 126.220378 360.735433 110.543265 364.600138 C 107.113897 365.445542 103.644062 365.861964 100.202268 365.870498 Z"/>
  <path fill="#8c922f" d="M 97.488431 147.444525 C 93.918827 147.438482 90.31906 146.993991 86.767119 146.087518 C 71.089584 142.08653 58.912384 129.743678 55.126529 114.016968 C 51.854435 100.424444 55.315192 86.232147 64.15276 75.726249 C 65.547382 74.253706 66.968292 72.796909 68.416751 71.357404 C 68.466019 71.302471 68.515486 71.248221 68.564994 71.193578 C 68.612537 71.151331 68.659796 71.108751 68.707553 71.066684 C 70.043513 69.735746 71.396396 68.425785 72.765994 67.137233 C 83.389204 58.173153 97.785257 54.7248 111.506132 58.155699 C 127.206726 62.081625 139.445379 74.370263 143.304437 90.083256 C 146.893365 104.696466 142.686263 120.040203 132.34963 130.762707 C 131.52856 131.528119 130.716096 132.308197 129.91286 133.103143 C 129.077051 133.927161 128.25594 134.763512 127.449568 135.611192 C 119.277869 143.288777 108.526402 147.463213 97.488431 147.444525 Z"/>
  <path fill="#000000" d="M 1200.615967 119.69696 C 1146.103638 119.406036 1107.547241 158.799988 1107.256226 213.006073 C 1106.989502 267.769714 1144.988037 306.63031 1200.058228 306.896973 C 1255.128418 307.163635 1293.684692 268.618164 1293.951538 213.490906 C 1294.242554 159.648499 1254.837402 119.963623 1200.615967 119.69696 Z M 1200.615967 161.878784 C 1228.842163 161.878784 1247.562622 186.484848 1247.562622 213.587891 C 1247.562622 241.806076 1229.957642 264.496948 1200.324951 264.496948 C 1170.692261 264.496948 1153.378418 241.587875 1153.378418 213.36969 C 1153.378418 185.15152 1171.274414 161.878784 1200.615967 161.878784 Z"/>
  <path fill="#000000" d="M 930.769758 304.10916 C 926.759098 304.122106 922.909086 302.534768 920.073074 299.699595 C 917.237135 296.864422 915.649783 293.015465 915.662734 289.00594 L 915.953536 210.218061 C 915.953536 184.230205 901.985981 163.842588 874.584339 163.842588 C 847.182622 163.842588 830.426058 186.484659 830.159352 212.181603 L 829.86855 289.00594 C 829.788553 297.257385 823.039592 303.885216 814.78568 303.817966 L 798.853611 303.817966 C 790.599847 303.737992 783.970046 296.990924 784.037388 288.739368 C 784.304095 240.957608 784.304332 192.908953 784.595312 145.127152 L 784.595312 138.70291 C 784.622027 130.461011 791.312643 123.793759 799.556935 123.793819 L 813.257785 123.793819 C 821.338975 124.033994 827.833794 130.526929 828.074008 138.605845 L 828.753177 146.242209 C 845.24265 130.872536 863.138797 121.103004 886.321091 121.103004 C 916.653986 121.263765 938.147872 136.207855 950.372848 158.424974 C 955.277785 151.992724 960.911817 146.242209 960.911817 146.242209 C 977.401319 130.872521 995.297407 121.103004 1018.479731 121.103004 C 1068.796961 121.369665 1094.792181 162.315365 1094.501261 209.660769 L 1094.234613 289.00594 C 1094.247519 293.015465 1092.659827 296.864422 1089.8238 299.699595 C 1086.987772 302.534768 1083.137716 304.122106 1079.127115 304.10916 L 1062.928399 304.10916 C 1058.917679 304.122106 1055.067742 302.534768 1052.231714 299.699595 C 1049.395805 296.864422 1047.808349 293.015465 1047.821374 289.00594 L 1048.112176 210.218061 C 1048.112176 184.230205 1034.144533 163.842588 1006.742979 163.842588 C 979.696969 163.842588 963.022317 185.9008 962.337411 211.18255 L 962.075499 289.00594 C 962.08845 293.015465 960.501098 296.864422 957.665159 299.699595 C 954.829147 302.534768 950.979061 304.122106 946.968475 304.10916 L 930.769758 304.10916 Z"/>
  <path fill="#000000" d="M 667.763896 306.24293 C 667.684453 306.242509 667.605461 306.24166 667.52614 306.241036 C 667.482858 306.241884 667.439801 306.242457 667.398262 306.242457 C 662.40312 306.242457 657.473703 305.76477 652.657345 304.841415 C 652.568285 304.824341 652.479206 304.807658 652.390224 304.790279 C 648.690185 304.083209 645.15555 303.12672 641.787316 301.9399 C 608.502349 290.466309 583.014853 256.991077 583.229065 213.006188 C 583.520045 158.800143 622.076473 119.406105 676.588839 119.697002 C 729.622017 119.957848 768.480791 157.928312 769.886094 209.972097 C 769.998696 210.732303 770.054064 211.511001 770.047598 212.303536 C 769.780892 260.085286 769.780655 234.436961 769.489675 282.218782 L 769.489675 288.643025 C 769.462916 296.884945 762.772329 303.552171 754.528052 303.552116 L 740.827202 303.552116 C 732.746027 303.311933 726.251222 296.819009 726.010979 288.740089 L 725.33181 281.103726 C 708.842367 296.47338 690.94622 306.24293 667.763896 306.24293 Z M 679.500648 263.503347 C 687.904421 263.503347 695.306461 261.373343 701.539087 257.67901 C 715.645462 248.89206 723.535373 232.478665 723.535373 213.588101 C 723.535373 186.4851 704.814962 161.87882 676.588839 161.87882 C 647.247225 161.87882 629.351029 185.151665 629.351029 213.369824 C 629.351029 222.570184 631.192108 231.205589 634.700082 238.667173 C 643.25386 253.540763 660.346097 263.503347 679.500648 263.503347 Z"/>
  <path fill="#000000" d="M 542.708435 254.09697 C 555.293823 244.593948 556.967041 249.90303 567.588196 260.52121 C 572.898804 265.830292 587.424133 275.06665 577.918396 282.872742 C 558.08252 299.066681 540.186523 306.339417 514.870239 306.339417 C 457.569183 306.072723 417.048615 263.309082 420.298004 206.581833 C 421.680237 181.175766 431.743683 157.127289 451.603851 140.642426 C 469.766571 125.272736 492.391144 118.581818 516.155457 119.139404 C 527.802917 119.104828 539.341675 121.378967 550.104492 125.830322 C 557.394226 128.461731 564.263611 132.136353 570.498108 136.73941 C 583.083496 146.436371 577.21521 152.1091 567.418457 161.878784 C 565.1875 164.109085 562.956604 166.363632 560.992432 168.593948 C 555.972778 173.612137 552.602112 177.248505 545.909363 172.496964 C 533.05719 163.551514 516.810181 158.799988 501.460388 162.799988 C 451.991852 175.357574 454.222778 263.381836 514.894531 263.672729 C 524.952271 263.540405 534.701904 260.183838 542.708435 254.09697 Z"/>
</svg>
