<svg width="328" height="107" viewBox="0 0 328 107" xmlns="http://www.w3.org/2000/svg" xmlns:xlink="http://www.w3.org/1999/xlink">
  <path id="c" fill="#000000" stroke="#ffffff" stroke-width="2" stroke-linecap="round" stroke-linejoin="round" d="M 134.015625 30.109375 L 138.359375 31.3125 L 142.3125 33.125 L 145.546875 35.59375 L 146.421875 37.25 L 146.03125 39.34375 L 140.1875 45.421875 L 138.109375 45.59375 L 133.859375 43.28125 L 131.625 42.609375 L 128.890625 42.359375 L 126.078125 42.8125 L 124.203125 43.625 L 121.84375 45.46875 L 120.171875 47.875 L 119.09375 50.71875 L 118.6875 54.890625 L 119.15625 57.875 L 120.84375 61.53125 L 122.90625 63.703125 L 125.59375 65.203125 L 129.703125 65.890625 L 133.484375 65.15625 L 136.1875 63.640625 L 138.625 62.265625 L 140.90625 62.796875 L 146.03125 67.671875 L 147.125 69.296875 L 147.203125 71.171875 L 145.1875 73.234375 L 140.90625 76 L 136.953125 77.609375 L 133.734375 78.3125 L 126.3125 78.375 L 120.0625 76.8125 L 114.6875 73.890625 L 111.90625 71.515625 L 109.546875 68.765625 L 107.140625 64.5625 L 105.59375 59.828125 L 105.015625 54.625 L 105.40625 49.515625 L 106.640625 44.8125 L 108.765625 40.484375 L 111 37.53125 L 114.609375 34.3125 L 117.515625 32.53125 L 121.65625 30.84375 L 126.0625 29.953125 L 130.609375 29.78125 Z"/>
  <path id="a" fill="#000000" stroke="#ffffff" stroke-width="2" stroke-linecap="round" stroke-linejoin="round" d="M 173.3125 30.09375 L 179.140625 31.5 L 184.28125 34.125 L 189.234375 38.703125 L 192.21875 43.53125 L 193.765625 47.984375 L 194.4375 52.8125 L 194.328125 73.9375 L 193.3125 76.203125 L 191.046875 77.703125 L 185.6875 77.859375 L 183.921875 77.28125 L 182.03125 75.40625 L 181.640625 73.109375 L 179.3125 74.984375 L 175.703125 76.96875 L 171.765625 78.203125 L 167.921875 78.546875 L 163.1875 78.03125 L 158.703125 76.4375 L 154.34375 73.59375 L 150.671875 69.734375 L 147.90625 64.953125 L 146.65625 61.296875 L 145.8125 55.3125 L 145.984375 51.015625 L 147.03125 46.203125 L 148.890625 41.828125 L 151.5 38.03125 L 154.828125 34.859375 L 158.765625 32.40625 L 163.25 30.75 L 168.1875 29.96875 Z M 172.234375 40.609375 L 174.84375 41.359375 L 179 44.234375 L 181.765625 48.546875 L 182.875 53.703125 L 182.171875 59.296875 L 179.75 63.796875 L 175.953125 66.78125 L 173.703125 67.5625 L 170.84375 67.890625 L 165.8125 66.984375 L 161.265625 64.25 L 158.578125 60.75 L 157.375 55.71875 L 157.4375 52.28125 L 158 49.59375 L 160.3125 45.0625 L 164.140625 41.859375 L 166.640625 40.890625 L 169.40625 40.46875 Z"/>
  <path id="m" fill="#000000" stroke="#ffffff" stroke-width="2" stroke-linecap="round" stroke-linejoin="round" d="M 226.125 30.546875 L 230 31.609375 L 234.3125 34.046875 L 237.015625 36.578125 L 238.6875 39 L 241.34375 36.078125 L 246.890625 32.265625 L 251.796875 30.625 L 257.40625 30.34375 L 260.828125 30.90625 L 264.796875 32.421875 L 267.421875 34.078125 L 270.359375 36.921875 L 273.484375 42.15625 L 274.5625 45.1875 L 275.40625 49.5 L 275.546875 73.421875 L 274.546875 76.234375 L 273.046875 77.46875 L 271.3125 78.015625 L 266.140625 78.015625 L 263.71875 77 L 262.46875 75.484375 L 261.953125 73.375 L 262.015625 53.015625 L 261.25 48.84375 L 259.90625 46.296875 L 257.984375 44.4375 L 255.421875 43.296875 L 252.109375 42.984375 L 248.984375 43.640625 L 246.4375 45.15625 L 244.515625 47.34375 L 243.21875 50.09375 L 242.59375 53.3125 L 242.515625 73.375 L 242 75.484375 L 240.78125 76.96875 L 239.109375 77.859375 L 233.53125 78.015625 L 230.6875 77.015625 L 229.4375 75.515625 L 228.921875 73.765625 L 228.96875 53.015625 L 228.203125 48.84375 L 226.875 46.296875 L 224.953125 44.4375 L 222.328125 43.28125 L 220.3125 42.984375 L 216.875 43.328125 L 214.125 44.59375 L 212.015625 46.609375 L 210.484375 49.265625 L 209.546875 53.59375 L 209.453125 73.375 L 208.90625 75.53125 L 206.984375 77.421875 L 205 77.9375 L 199.875 77.90625 L 197.015625 76.25 L 196 73.5625 L 196.140625 35.546875 L 196.671875 33.421875 L 197.890625 31.9375 L 200.5 30.9375 L 204.859375 30.96875 L 206.53125 31.53125 L 207.921875 32.65625 L 208.796875 34.234375 L 208.96875 35.671875 L 212.078125 33.265625 L 216.71875 31.140625 L 220.890625 30.328125 Z"/>
  <path id="o" fill="#000000" stroke="#ffffff" stroke-width="2" stroke-linecap="round" stroke-linejoin="round" d="M 305.625 30.296875 L 310.34375 31.5625 L 314.5625 33.671875 L 318.21875 36.5 L 321.21875 40 L 323.484375 44.109375 L 324.921875 48.703125 L 325.484375 53.71875 L 325.109375 58.90625 L 323.859375 63.640625 L 321.8125 67.890625 L 319 71.53125 L 315.484375 74.515625 L 311.390625 76.75 L 306.765625 78.171875 L 301.671875 78.71875 L 296.46875 78.34375 L 291.734375 77.09375 L 287.53125 75.015625 L 283.90625 72.1875 L 280.96875 68.6875 L 278.75 64.59375 L 277.34375 59.96875 L 276.8125 54.90625 L 277.171875 49.765625 L 278.421875 45.0625 L 280.46875 40.828125 L 283.28125 37.171875 L 286.75 34.171875 L 290.84375 31.921875 L 295.4375 30.46875 L 301.140625 29.921875 Z M 305.8125 41.34375 L 309.96875 44.203125 L 311.578125 46.296875 L 313.203125 49.8125 L 313.890625 55.078125 L 312.8125 60.296875 L 310.125 64.5 L 308.140625 66.125 L 305.84375 67.296875 L 303.234375 67.96875 L 300.34375 68.109375 L 297.578125 67.6875 L 295.0625 66.734375 L 291.265625 63.578125 L 288.96875 59.03125 L 288.328125 53.625 L 289.421875 48.40625 L 292.109375 44.15625 L 294.09375 42.484375 L 296.421875 41.296875 L 301.140625 40.453125 Z"/>
  <path id="logo-outline" fill="#ffffff" stroke="#ffffff" stroke-width="2" stroke-linecap="round" stroke-linejoin="round" d="M 59.4375 3.765625 L 66.6875 5.265625 L 71.375 6.84375 L 78.03125 10.015625 L 84.1875 14.1875 L 89.6875 19.1875 L 91.84375 22.5625 L 92.78125 27.21875 L 92.0625 31.265625 L 89.5625 35.359375 L 85.625 38.125 L 80.890625 39.109375 L 78.421875 38.859375 L 75.40625 37.796875 L 67.3125 31.390625 L 61.484375 28.625 L 57.875 27.6875 L 54.046875 27.265625 L 50.296875 27.375 L 46.609375 28.015625 L 40.546875 30.296875 L 36.296875 33.09375 L 32.359375 36.984375 L 28.953125 42.296875 L 27.21875 46.9375 L 26.375 51.90625 L 26.484375 56.890625 L 27.5 61.78125 L 29.28125 66.203125 L 32 70.421875 L 35.53125 74.109375 L 39.84375 77.171875 L 44.53125 79.28125 L 48.34375 80.234375 L 52.953125 80.640625 L 57.609375 80.25 L 61.375 79.328125 L 64.953125 77.859375 L 68.375 75.828125 L 74.25 71.0625 L 76.40625 70.078125 L 79.765625 69.421875 L 83.1875 69.765625 L 86.390625 71.109375 L 89.1875 73.40625 L 91.125 76.359375 L 91.890625 78.59375 L 92.203125 82 L 91.09375 86.421875 L 88.703125 89.796875 L 82 95.40625 L 75.625 99.1875 L 68.78125 102 L 61.578125 103.78125 L 52.921875 104.5 L 47 104.140625 L 42.328125 103.328125 L 33.4375 100.5 L 25.203125 96.078125 L 17.53125 89.921875 L 11.515625 82.78125 L 6.734375 74.25 L 3.75 65.15625 L 2.890625 60.421875 L 2.484375 53.296875 L 3.5 43.84375 L 6.28125 34.671875 L 10.84375 26.109375 L 13.796875 22.0625 L 17.703125 17.78125 L 25.078125 11.8125 L 33.4375 7.328125 L 42.46875 4.484375 L 47.203125 3.6875 L 53.203125 3.375 Z"/>
  <path id="logo-5" fill="#647a6b" stroke="none" d="M 33.338753 73.463638 C 28.165207 68.244156 25.281654 61.181232 25.324362 53.833336 C 25.305559 46.484135 28.243963 39.436142 33.478188 34.275757 C 36.502316 31.588524 37.790905 27.449074 36.826145 23.520828 C 35.861385 19.592575 32.801659 16.520447 28.876505 15.538963 C 24.951355 14.55748 20.805191 15.827782 18.104136 18.839394 C -1.286264 38.109932 -1.381256 69.445663 17.891954 88.833336 C 20.583944 91.840469 24.716593 93.116257 28.635876 92.150078 C 32.555157 91.183899 35.620743 88.133621 36.605686 84.220047 C 37.590626 80.30648 36.334 76.169029 33.338753 73.463638 Z"/>
  <path id="logo-4" fill="#afb18a" stroke="none" d="M 33.478188 34.275757 C 44.350529 23.515617 61.881664 23.577957 72.67717 34.415154 C 75.360191 37.454559 79.507767 38.756058 83.446938 37.794662 C 87.386108 36.833267 90.467209 33.76754 91.447472 29.834068 C 92.427727 25.900604 91.14547 21.7481 88.117905 19.051514 C 78.896072 9.713417 66.332481 4.433609 53.2066 4.380157 C 40.080719 4.326691 27.474512 9.50399 18.176884 18.76667 C 15.14185 21.440094 13.835125 25.572609 14.781588 29.504288 C 15.728052 33.435966 18.7724 36.52166 22.691788 37.521904 C 26.611176 38.522156 30.762468 37.272827 33.478188 34.275757 Z"/>
  <path id="logo-3" fill="#726543" stroke="none" d="M 72.610481 73.603027 C 67.391479 78.785431 60.324459 81.679039 52.968555 81.645454 C 45.612858 81.656265 38.562241 78.707504 33.405441 73.463638 C 30.717447 70.440361 26.57682 69.15213 22.647459 70.116623 C 18.718096 71.081116 15.645098 74.139969 14.663337 78.064011 C 13.681578 81.988052 14.952235 86.133049 17.964703 88.833336 C 27.202209 98.170555 39.777424 103.447952 52.913704 103.500259 C 66.049988 103.552567 78.666855 98.375488 87.978477 89.112122 C 92.262405 84.869568 92.294975 77.958473 88.051216 73.675751 C 83.807465 69.393036 76.894409 69.360474 72.610481 73.603027 Z"/>
  <path id="logo-2" fill="#b69d5b" stroke="none" d="M 26.050567 92.467624 C 23.657952 92.473557 21.320236 91.691248 19.409719 90.235735 C 18.919533 89.779026 18.43776 89.31155 17.964707 88.833391 C 14.952242 86.133106 13.681588 81.988017 14.663346 78.063979 C 15.645105 74.139945 18.718137 71.081141 22.647496 70.116654 C 26.118396 69.264698 29.754053 70.170423 32.407836 72.477094 C 32.709362 72.812687 33.019635 73.141667 33.338734 73.4636 C 36.333979 76.16899 37.590577 80.306431 36.60564 84.219992 C 35.620698 88.133563 32.555094 91.183858 28.635816 92.150034 C 27.778474 92.361386 26.911015 92.465491 26.050567 92.467624 Z"/>
  <path id="logo-1" fill="#8c922f" stroke="none" d="M 25.372108 37.861131 C 24.479707 37.85962 23.579765 37.748498 22.69178 37.521879 C 18.772396 36.521633 15.728096 33.435919 14.781632 29.504242 C 13.963609 26.106111 14.828798 22.558037 17.03819 19.931562 C 17.386845 19.563427 17.742073 19.199227 18.104188 18.839351 C 18.116505 18.825618 18.128872 18.812055 18.141248 18.798395 C 18.153134 18.787833 18.164949 18.777188 18.176888 18.766671 C 18.510878 18.433936 18.849099 18.106446 19.191499 17.784308 C 21.847301 15.543288 25.446314 14.6812 28.876533 15.538925 C 32.801682 16.520406 35.861345 19.592566 36.826109 23.520814 C 37.723341 27.174116 36.671566 31.010051 34.087408 33.690677 C 33.88214 33.88203 33.679024 34.077049 33.478215 34.275786 C 33.269263 34.48179 33.063985 34.690878 32.862392 34.902798 C 30.819467 36.822194 28.1316 37.865803 25.372108 37.861131 Z"/>
</svg>
