<svg width="324" height="103" viewBox="0 0 324 103" xmlns="http://www.w3.org/2000/svg" xmlns:xlink="http://www.w3.org/1999/xlink">
  <path id="o" fill="#000000" stroke="none" d="M 299.153992 28.92424 C 285.525909 28.851509 275.88681 38.699997 275.814056 52.251518 C 275.747375 65.942429 285.247009 75.657578 299.014557 75.724243 C 312.782104 75.790909 322.421173 66.154541 322.487885 52.372726 C 322.560638 38.912125 312.709351 28.990906 299.153992 28.92424 Z M 299.153992 39.469696 C 306.210541 39.469696 310.890656 45.621212 310.890656 52.396973 C 310.890656 59.451519 306.48941 65.124237 299.081238 65.124237 C 291.673065 65.124237 287.344604 59.396969 287.344604 52.342422 C 287.344604 45.28788 291.818604 39.469696 299.153992 39.469696 Z"/>
  <path id="m" fill="#000000" fill-rule="evenodd" stroke="none" d="M 231.69244 75.02729 C 230.689774 75.030527 229.727272 74.633692 229.018268 73.924899 C 228.309284 73.216106 227.912446 72.253866 227.915683 71.251485 L 227.988384 51.554515 C 227.988384 45.057551 224.496495 39.960647 217.646085 39.960647 C 210.795656 39.960647 206.606515 45.621165 206.539838 52.045401 L 206.467137 71.251485 C 206.447138 73.314346 204.759898 74.971304 202.69642 74.954492 L 198.713403 74.954492 C 196.649962 74.934498 194.992511 73.247731 195.009347 71.184842 C 195.076024 59.239402 195.076083 47.227238 195.148828 35.281788 L 195.148828 33.675727 C 195.155507 31.615253 196.828161 29.94844 198.889234 29.948455 L 202.314446 29.948455 C 204.334744 30.008498 205.958449 31.631732 206.018502 33.651461 L 206.188294 35.560552 C 210.310662 31.718134 214.784699 29.275751 220.580273 29.275751 C 228.163496 29.315941 233.536968 33.051964 236.593212 38.606243 C 237.819446 36.998181 239.227954 35.560552 239.227954 35.560552 C 243.35033 31.71813 247.824352 29.275751 253.619933 29.275751 C 266.19924 29.342416 272.698045 39.578841 272.625315 51.415192 L 272.558653 71.251485 C 272.56188 72.253866 272.164957 73.216106 271.45595 73.924899 C 270.746943 74.633692 269.784429 75.030527 268.781779 75.02729 L 264.7321 75.02729 C 263.72942 75.030527 262.766935 74.633692 262.057928 73.924899 C 261.348951 73.216106 260.952087 72.253866 260.955343 71.251485 L 261.028044 51.554515 C 261.028044 45.057551 257.536133 39.960647 250.685745 39.960647 C 243.924242 39.960647 239.755579 45.4752 239.584353 51.795637 L 239.518875 71.251485 C 239.522112 72.253866 239.125275 73.216106 238.41629 73.924899 C 237.707287 74.633692 236.744765 75.030527 235.742119 75.02729 L 231.69244 75.02729 Z"/>
  <path id="a" fill="#000000" fill-rule="evenodd" stroke="none" d="M 165.940974 75.560733 C 165.921113 75.560627 165.901365 75.560415 165.881535 75.560259 C 165.870714 75.560471 165.85995 75.560614 165.849566 75.560614 C 164.60078 75.560614 163.368426 75.441192 162.164336 75.210354 C 162.142071 75.206085 162.119802 75.201914 162.097556 75.19757 C 161.172546 75.020802 160.288888 74.78168 159.446829 74.484975 C 151.125587 71.616577 144.753713 63.247769 144.807266 52.251547 C 144.880011 38.700036 154.519118 28.851526 168.14721 28.924251 C 181.405504 28.989462 191.120198 38.482078 191.471524 51.493024 C 191.499674 51.683076 191.513516 51.87775 191.5119 52.075884 C 191.445223 64.021321 191.445164 57.60924 191.372419 69.554696 L 191.372419 71.160756 C 191.365729 73.221236 189.693082 74.888043 187.632013 74.888029 L 184.2068 74.888029 C 182.186507 74.827983 180.562806 73.204752 180.502745 71.185022 L 180.332952 69.275931 C 176.210592 73.118345 171.736555 75.560733 165.940974 75.560733 Z M 168.875162 64.875837 C 170.976105 64.875837 172.826615 64.343336 174.384772 63.419752 C 177.911365 61.223015 179.883843 57.119666 179.883843 52.397025 C 179.883843 45.621275 175.203741 39.469705 168.14721 39.469705 C 160.811806 39.469705 156.337757 45.287916 156.337757 52.342456 C 156.337757 54.642546 156.798027 56.801397 157.67502 58.666793 C 159.813465 62.385191 164.086524 64.875837 168.875162 64.875837 Z"/>
  <path id="c" fill="#000000" stroke="none" d="M 134.677109 62.524242 C 137.823456 60.148487 138.24176 61.475758 140.897049 64.130302 C 142.224701 65.457573 145.856033 67.766663 143.479599 69.718185 C 138.52063 73.76667 134.046631 75.584854 127.71756 75.584854 C 113.392296 75.518181 103.262154 64.827271 104.074501 50.645458 C 104.420059 44.293941 106.935921 38.281822 111.900963 34.160606 C 116.441643 30.318184 122.097786 28.645454 128.038864 28.784851 C 130.950729 28.776207 133.835419 29.344742 136.526123 30.457581 C 138.348557 31.115433 140.065903 32.034088 141.624527 33.184853 C 144.770874 35.609093 143.303802 37.027275 140.854614 39.469696 C 140.296875 40.027271 139.739151 40.590908 139.248108 41.148487 C 137.993195 42.403034 137.150528 43.312126 135.477341 42.124241 C 132.264297 39.887882 128.202545 38.699997 124.365097 39.700001 C 111.997963 42.839394 112.555695 64.845459 127.723633 64.918182 C 130.238068 64.885101 132.675476 64.045959 134.677109 62.524242 Z"/>
  <path id="logo-5" fill="#647a6b" stroke="none" d="M 31.338755 71.463638 C 26.165207 66.244156 23.281654 59.181232 23.324362 51.833336 C 23.305559 44.484135 26.243963 37.436142 31.478188 32.275757 C 34.502316 29.588524 35.790905 25.449074 34.826145 21.520828 C 33.861385 17.592575 30.801657 14.520447 26.876505 13.538963 C 22.951355 12.55748 18.805191 13.827782 16.104136 16.839394 C -3.286264 36.109932 -3.381256 67.445663 15.891954 86.833336 C 18.583944 89.840469 22.716593 91.116257 26.635876 90.150078 C 30.555159 89.183899 33.620743 86.133621 34.605686 82.220047 C 35.590626 78.30648 34.334 74.169029 31.338755 71.463638 Z"/>
  <path id="logo-4" fill="#afb18a" stroke="none" d="M 31.478188 32.275757 C 42.350529 21.515617 59.881664 21.577957 70.67717 32.415154 C 73.360191 35.454559 77.507767 36.756058 81.446938 35.794662 C 85.386108 34.833267 88.467209 31.76754 89.447472 27.834068 C 90.427727 23.900604 89.14547 19.7481 86.117905 17.051514 C 76.896072 7.713417 64.332481 2.433609 51.2066 2.380157 C 38.080719 2.326691 25.474512 7.50399 16.176884 16.76667 C 13.14185 19.440094 11.835125 23.572609 12.781588 27.504288 C 13.728052 31.435966 16.7724 34.52166 20.691788 35.521904 C 24.611176 36.522156 28.762468 35.272827 31.478188 32.275757 Z"/>
  <path id="logo-3" fill="#726543" stroke="none" d="M 70.610481 71.603027 C 65.391479 76.785431 58.324459 79.679039 50.968555 79.645454 C 43.612858 79.656265 36.562241 76.707504 31.405439 71.463638 C 28.717447 68.440361 24.57682 67.15213 20.647459 68.116623 C 16.718096 69.081116 13.645098 72.139977 12.663337 76.064011 C 11.681578 79.988052 12.952235 84.133049 15.964703 86.833336 C 25.202209 96.170555 37.777424 101.447952 50.913704 101.500259 C 64.049988 101.552567 76.666855 96.375488 85.978477 87.112129 C 90.262405 82.869568 90.294975 75.958473 86.051216 71.675758 C 81.807465 67.393036 74.894409 67.360474 70.610481 71.603027 Z"/>
  <path id="logo-2" fill="#b69d5b" fill-rule="evenodd" stroke="none" d="M 24.050567 90.467624 C 21.657952 90.473557 19.320236 89.691248 17.409719 88.235735 C 16.919533 87.779026 16.43776 87.31155 15.964707 86.833391 C 12.952242 84.133106 11.681588 79.988017 12.663346 76.063979 C 13.645105 72.139945 16.718137 69.081141 20.647496 68.116654 C 24.118396 67.264698 27.754053 68.170423 30.407836 70.477094 C 30.709362 70.812687 31.019635 71.141667 31.338734 71.4636 C 34.333979 74.16899 35.590577 78.306431 34.60564 82.219992 C 33.620698 86.133563 30.555094 89.183858 26.635816 90.150034 C 25.778474 90.361386 24.911015 90.465491 24.050567 90.467624 Z"/>
  <path id="logo-1" fill="#8c922f" fill-rule="evenodd" stroke="none" d="M 23.372108 35.861131 C 22.479707 35.85962 21.579765 35.748498 20.69178 35.521879 C 16.772396 34.521633 13.728096 31.435919 12.781632 27.504242 C 11.963609 24.106111 12.828798 20.558037 15.03819 17.931562 C 15.386845 17.563427 15.742073 17.199227 16.104188 16.839351 C 16.116505 16.825618 16.128872 16.812055 16.141248 16.798395 C 16.153134 16.787833 16.164949 16.777188 16.176888 16.766671 C 16.510878 16.433936 16.849099 16.106446 17.191499 15.784308 C 19.847301 13.543288 23.446314 12.6812 26.876533 13.538925 C 30.801682 14.520406 33.861345 17.592566 34.826109 21.520814 C 35.723341 25.174116 34.671566 29.010051 32.087408 31.690677 C 31.88214 31.88203 31.679024 32.077049 31.478215 32.275786 C 31.269263 32.48179 31.063985 32.690878 30.862392 32.902798 C 28.819467 34.822194 26.1316 35.865803 23.372108 35.861131 Z"/>
</svg>
